<svg width="16" height="14" viewBox="0 0 16 14" fill="none" xmlns="http://www.w3.org/2000/svg">
<path d="M15.3246 0.148758C15.1298 -0.0353792 14.7792 -0.0558389 14.1948 0.128299C13.7857 0.251057 10.1821 1.68324 6.98757 3.0745C4.12415 4.32255 1.78666 5.40691 1.51396 5.55013C1.20229 5.65243 0.540004 5.95932 0.501046 6.4299C0.481567 6.73679 0.734795 7.00277 1.20229 7.22783C1.70875 7.4938 3.94884 8.27127 4.41633 8.43495C4.57216 9.02829 5.52664 12.4246 5.58507 12.6292C5.64351 12.9361 5.8383 13.1202 5.9357 13.1816C5.95518 13.1816 5.97465 13.2225 6.01361 13.243C6.05257 13.2839 6.13049 13.3044 6.2084 13.3044C6.3058 13.3044 6.44215 13.243 6.55903 13.1612C7.16288 12.6497 8.19526 11.5039 8.48745 11.1766C9.75359 12.2405 11.1561 13.4067 11.2924 13.5499L11.3119 13.5703C11.6236 13.8363 11.9547 14 12.2469 14C12.3443 14 12.4417 13.9795 12.5391 13.9386C12.8702 13.8159 13.1235 13.4885 13.2014 13.0179C13.2014 12.9975 13.2209 12.9361 13.2598 12.8133C13.8052 10.2968 14.2532 8.06668 14.6039 6.20484C14.935 4.36346 15.2272 2.58347 15.383 1.62186C15.4025 1.37634 15.4415 1.19221 15.4609 1.06945C15.5194 0.721631 15.5389 0.332896 15.3246 0.148758ZM12.578 2.99266L10.6107 4.91588C9.24713 6.24576 7.45506 7.96438 6.26684 9.08966C6.26684 9.08966 6.26684 9.08966 6.26684 9.11012L6.24736 9.13058C6.24736 9.13058 6.24736 9.15104 6.22788 9.15104C6.22788 9.1715 6.22788 9.1715 6.2084 9.19196V9.21242C6.2084 9.21242 6.2084 9.21242 6.2084 9.23288C6.13049 10.1945 5.97465 11.8313 5.91622 12.5678C5.91622 12.5678 5.91622 12.5678 5.91622 12.5474C5.85778 12.3428 4.94227 9.0692 4.74748 8.39403L12.5001 2.99266C12.5001 2.9722 12.5391 2.95174 12.5586 2.93128C12.578 2.93128 12.578 2.91082 12.5975 2.91082C12.617 2.91082 12.617 2.91082 12.6365 2.89036C12.6365 2.91082 12.617 2.95174 12.578 2.99266Z" fill="white"/>
</svg>
